<?xml version="1.0" encoding="UTF-8" standalone="no"?>
<!DOCTYPE svg PUBLIC "-//W3C//DTD SVG 1.1//EN"
 "http://www.w3.org/Graphics/SVG/1.1/DTD/svg11.dtd">
<!-- Generated by graphviz version 5.0.0 (20220707.1540)
 -->
<!-- Title: dependencies Pages: 1 -->
<svg width="1946pt" height="399pt"
 viewBox="0.00 0.00 1946.00 398.80" xmlns="http://www.w3.org/2000/svg" xmlns:xlink="http://www.w3.org/1999/xlink">
<g id="graph0" class="graph" transform="scale(1 1) rotate(0) translate(4 394.8)">
<title>dependencies</title>
<polygon fill="white" stroke="transparent" points="-4,4 -4,-394.8 1942,-394.8 1942,4 -4,4"/>
<text text-anchor="middle" x="969" y="-8.2" font-family="sans-serif" font-size="14.00">dependencies</text>
<g id="clust1" class="cluster">
<title>cluster_AppModule</title>
<polygon fill="none" stroke="black" stroke-dasharray="1,5" points="599,-162.8 599,-374.8 827,-374.8 827,-162.8 599,-162.8"/>
</g>
<g id="clust3" class="cluster">
<title>cluster_AppModule_imports</title>
<polygon fill="none" stroke="black" points="607,-170.8 607,-298.8 819,-298.8 819,-170.8 607,-170.8"/>
</g>
<g id="clust7" class="cluster">
<title>cluster_AuthenticationModule</title>
<polygon fill="none" stroke="black" stroke-dasharray="1,5" points="8,-32.8 8,-230.8 591,-230.8 591,-32.8 8,-32.8"/>
</g>
<g id="clust10" class="cluster">
<title>cluster_AuthenticationModule_exports</title>
<polygon fill="none" stroke="black" points="302,-170.8 302,-222.8 462,-222.8 462,-170.8 302,-170.8"/>
</g>
<g id="clust12" class="cluster">
<title>cluster_AuthenticationModule_providers</title>
<polygon fill="none" stroke="black" points="16,-40.8 16,-92.8 583,-92.8 583,-40.8 16,-40.8"/>
</g>
<g id="clust13" class="cluster">
<title>cluster_CoreModule</title>
<polygon fill="none" stroke="black" stroke-dasharray="1,5" points="835,-238.8 835,-306.8 1369,-306.8 1369,-238.8 835,-238.8"/>
</g>
<g id="clust16" class="cluster">
<title>cluster_CoreModule_exports</title>
<polygon fill="none" stroke="black" points="1047,-246.8 1047,-298.8 1361,-298.8 1361,-246.8 1047,-246.8"/>
</g>
<g id="clust18" class="cluster">
<title>cluster_CoreModule_providers</title>
<polygon fill="none" stroke="black" points="843,-246.8 843,-298.8 1039,-298.8 1039,-246.8 843,-246.8"/>
</g>
<g id="clust19" class="cluster">
<title>cluster_ProductsModule</title>
<polygon fill="none" stroke="black" stroke-dasharray="1,5" points="835,-314.8 835,-382.8 1149,-382.8 1149,-314.8 835,-314.8"/>
</g>
<g id="clust22" class="cluster">
<title>cluster_ProductsModule_exports</title>
<polygon fill="none" stroke="black" points="1015,-322.8 1015,-374.8 1141,-374.8 1141,-322.8 1015,-322.8"/>
</g>
<g id="clust24" class="cluster">
<title>cluster_ProductsModule_providers</title>
<polygon fill="none" stroke="black" points="843,-322.8 843,-374.8 1007,-374.8 1007,-322.8 843,-322.8"/>
</g>
<g id="clust25" class="cluster">
<title>cluster_UsersModule</title>
<polygon fill="none" stroke="black" stroke-dasharray="1,5" points="1377,-238.8 1377,-306.8 1930,-306.8 1930,-238.8 1377,-238.8"/>
</g>
<g id="clust28" class="cluster">
<title>cluster_UsersModule_exports</title>
<polygon fill="none" stroke="black" points="1690,-246.8 1690,-298.8 1922,-298.8 1922,-246.8 1690,-246.8"/>
</g>
<g id="clust30" class="cluster">
<title>cluster_UsersModule_providers</title>
<polygon fill="none" stroke="black" points="1385,-246.8 1385,-298.8 1682,-298.8 1682,-246.8 1385,-246.8"/>
</g>
<!-- CoreModule -->
<g id="node1" class="node">
<title>CoreModule</title>
<polygon fill="#8dd3c7" stroke="black" points="701.27,-214.8 698.27,-218.8 677.27,-218.8 674.27,-214.8 614.73,-214.8 614.73,-178.8 701.27,-178.8 701.27,-214.8"/>
<text text-anchor="middle" x="658" y="-192.6" font-family="Times,serif" font-size="14.00">CoreModule</text>
</g>
<!-- AppModule -->
<g id="node4" class="node">
<title>AppModule</title>
<polygon fill="#8dd3c7" stroke="black" points="725.66,-366.8 722.66,-370.8 701.66,-370.8 698.66,-366.8 642.34,-366.8 642.34,-330.8 725.66,-330.8 725.66,-366.8"/>
<text text-anchor="middle" x="684" y="-344.6" font-family="Times,serif" font-size="14.00">AppModule</text>
</g>
<!-- CoreModule&#45;&gt;AppModule -->
<g id="edge1" class="edge">
<title>CoreModule&#45;&gt;AppModule</title>
<path fill="none" stroke="black" d="M681.64,-214.83C681.64,-214.83 681.64,-320.79 681.64,-320.79"/>
<polygon fill="black" stroke="black" points="678.14,-320.79 681.64,-330.79 685.14,-320.79 678.14,-320.79"/>
</g>
<!-- AuthenticationModule  -->
<g id="node10" class="node">
<title>AuthenticationModule </title>
<polygon fill="#fb8072" stroke="black" points="1353.25,-290.8 1206.75,-290.8 1206.75,-254.8 1353.25,-254.8 1353.25,-290.8"/>
<text text-anchor="middle" x="1280" y="-268.6" font-family="Times,serif" font-size="14.00">AuthenticationModule </text>
</g>
<!-- CoreModule&#45;&gt;AuthenticationModule  -->
<g id="edge9" class="edge">
<title>CoreModule&#45;&gt;AuthenticationModule </title>
<path fill="none" stroke="black" stroke-dasharray="5,2" d="M661.91,-214.86C661.91,-219.29 661.91,-222.8 661.91,-222.8 661.91,-222.8 1280,-222.8 1280,-222.8 1280,-222.8 1280,-244.75 1280,-244.75"/>
<polygon fill="black" stroke="black" points="1276.5,-244.75 1280,-254.75 1283.5,-244.75 1276.5,-244.75"/>
</g>
<!-- EnvironmentService  -->
<g id="node11" class="node">
<title>EnvironmentService </title>
<polygon fill="#fb8072" stroke="black" points="1189.08,-290.8 1054.92,-290.8 1054.92,-254.8 1189.08,-254.8 1189.08,-290.8"/>
<text text-anchor="middle" x="1122" y="-268.6" font-family="Times,serif" font-size="14.00">EnvironmentService </text>
</g>
<!-- CoreModule&#45;&gt;EnvironmentService  -->
<g id="edge10" class="edge">
<title>CoreModule&#45;&gt;EnvironmentService </title>
<path fill="none" stroke="black" stroke-dasharray="5,2" d="M652.04,-214.99C652.04,-223.08 652.04,-230.8 652.04,-230.8 652.04,-230.8 1122,-230.8 1122,-230.8 1122,-230.8 1122,-244.74 1122,-244.74"/>
<polygon fill="black" stroke="black" points="1118.5,-244.74 1122,-254.74 1125.5,-244.74 1118.5,-244.74"/>
</g>
<!-- ProductsModule -->
<g id="node2" class="node">
<title>ProductsModule</title>
<polygon fill="#8dd3c7" stroke="black" points="811.05,-290.8 808.05,-294.8 787.05,-294.8 784.05,-290.8 702.95,-290.8 702.95,-254.8 811.05,-254.8 811.05,-290.8"/>
<text text-anchor="middle" x="757" y="-268.6" font-family="Times,serif" font-size="14.00">ProductsModule</text>
</g>
<!-- ProductsModule&#45;&gt;AppModule -->
<g id="edge2" class="edge">
<title>ProductsModule&#45;&gt;AppModule</title>
<path fill="none" stroke="black" d="M714.28,-290.81C714.28,-290.81 714.28,-320.65 714.28,-320.65"/>
<polygon fill="black" stroke="black" points="710.78,-320.65 714.28,-330.65 717.78,-320.65 710.78,-320.65"/>
</g>
<!-- ProductsService  -->
<g id="node13" class="node">
<title>ProductsService </title>
<polygon fill="#fb8072" stroke="black" points="1133.48,-366.8 1022.52,-366.8 1022.52,-330.8 1133.48,-330.8 1133.48,-366.8"/>
<text text-anchor="middle" x="1078" y="-344.6" font-family="Times,serif" font-size="14.00">ProductsService </text>
</g>
<!-- ProductsModule&#45;&gt;ProductsService  -->
<g id="edge13" class="edge">
<title>ProductsModule&#45;&gt;ProductsService </title>
<path fill="none" stroke="black" stroke-dasharray="5,2" d="M754.31,-290.91C754.31,-300.7 754.31,-310.8 754.31,-310.8 754.31,-310.8 1027.09,-310.8 1027.09,-310.8 1027.09,-310.8 1027.09,-320.69 1027.09,-320.69"/>
<polygon fill="black" stroke="black" points="1023.59,-320.69 1027.09,-330.69 1030.59,-320.69 1023.59,-320.69"/>
</g>
<!-- UsersModule -->
<g id="node3" class="node">
<title>UsersModule</title>
<polygon fill="#8dd3c7" stroke="black" points="810.94,-214.8 807.94,-218.8 786.94,-218.8 783.94,-214.8 719.06,-214.8 719.06,-178.8 810.94,-178.8 810.94,-214.8"/>
<text text-anchor="middle" x="765" y="-192.6" font-family="Times,serif" font-size="14.00">UsersModule</text>
</g>
<!-- UsersModule&#45;&gt;ProductsModule -->
<g id="edge12" class="edge">
<title>UsersModule&#45;&gt;ProductsModule</title>
<path fill="none" stroke="black" d="M780.24,-214.81C780.24,-214.81 780.24,-244.65 780.24,-244.65"/>
<polygon fill="black" stroke="black" points="776.74,-244.65 780.24,-254.65 783.74,-244.65 776.74,-244.65"/>
</g>
<!-- UsersModule&#45;&gt;AppModule -->
<g id="edge3" class="edge">
<title>UsersModule&#45;&gt;AppModule</title>
<path fill="none" stroke="black" d="M749.76,-214.85C749.76,-229.17 749.76,-246.8 749.76,-246.8 749.76,-246.8 691.51,-246.8 691.51,-246.8 691.51,-246.8 691.51,-320.56 691.51,-320.56"/>
<polygon fill="black" stroke="black" points="688.01,-320.56 691.51,-330.56 695.01,-320.56 688.01,-320.56"/>
</g>
<!-- SessionService  -->
<g id="node15" class="node">
<title>SessionService </title>
<polygon fill="#fb8072" stroke="black" points="1914.27,-290.8 1809.73,-290.8 1809.73,-254.8 1914.27,-254.8 1914.27,-290.8"/>
<text text-anchor="middle" x="1862" y="-268.6" font-family="Times,serif" font-size="14.00">SessionService </text>
</g>
<!-- UsersModule&#45;&gt;SessionService  -->
<g id="edge15" class="edge">
<title>UsersModule&#45;&gt;SessionService </title>
<path fill="none" stroke="black" stroke-dasharray="5,2" d="M810.74,-186.8C1018.36,-186.8 1862,-186.8 1862,-186.8 1862,-186.8 1862,-244.56 1862,-244.56"/>
<polygon fill="black" stroke="black" points="1858.5,-244.56 1862,-254.56 1865.5,-244.56 1858.5,-244.56"/>
</g>
<!-- UsersService  -->
<g id="node16" class="node">
<title>UsersService </title>
<polygon fill="#fb8072" stroke="black" points="1791.86,-290.8 1698.14,-290.8 1698.14,-254.8 1791.86,-254.8 1791.86,-290.8"/>
<text text-anchor="middle" x="1745" y="-268.6" font-family="Times,serif" font-size="14.00">UsersService </text>
</g>
<!-- UsersModule&#45;&gt;UsersService  -->
<g id="edge16" class="edge">
<title>UsersModule&#45;&gt;UsersService </title>
<path fill="none" stroke="black" stroke-dasharray="5,2" d="M810.95,-193.8C1004.7,-193.8 1745,-193.8 1745,-193.8 1745,-193.8 1745,-244.48 1745,-244.48"/>
<polygon fill="black" stroke="black" points="1741.5,-244.48 1745,-254.48 1748.5,-244.48 1741.5,-244.48"/>
</g>
<!-- AuthenticationService  -->
<g id="node5" class="node">
<title>AuthenticationService </title>
<polygon fill="#fb8072" stroke="black" points="454.18,-214.8 309.82,-214.8 309.82,-178.8 454.18,-178.8 454.18,-214.8"/>
<text text-anchor="middle" x="382" y="-192.6" font-family="Times,serif" font-size="14.00">AuthenticationService </text>
</g>
<!-- AuthenticationModule -->
<g id="node6" class="node">
<title>AuthenticationModule</title>
<polygon fill="#8dd3c7" stroke="black" points="453.25,-149.8 450.25,-153.8 429.25,-153.8 426.25,-149.8 310.75,-149.8 310.75,-113.8 453.25,-113.8 453.25,-149.8"/>
<text text-anchor="middle" x="382" y="-127.6" font-family="Times,serif" font-size="14.00">AuthenticationModule</text>
</g>
<!-- AuthenticationModule&#45;&gt;CoreModule -->
<g id="edge8" class="edge">
<title>AuthenticationModule&#45;&gt;CoreModule</title>
<path fill="none" stroke="black" d="M453.44,-131.8C535.21,-131.8 658,-131.8 658,-131.8 658,-131.8 658,-168.69 658,-168.69"/>
<polygon fill="black" stroke="black" points="654.5,-168.69 658,-178.69 661.5,-168.69 654.5,-168.69"/>
</g>
<!-- AuthenticationModule&#45;&gt;AuthenticationService  -->
<g id="edge4" class="edge">
<title>AuthenticationModule&#45;&gt;AuthenticationService </title>
<path fill="none" stroke="black" stroke-dasharray="5,2" d="M382,-149.91C382,-149.91 382,-168.79 382,-168.79"/>
<polygon fill="black" stroke="black" points="378.5,-168.79 382,-178.79 385.5,-168.79 378.5,-168.79"/>
</g>
<!-- AuthenticationService -->
<g id="node7" class="node">
<title>AuthenticationService</title>
<ellipse fill="#fdb462" stroke="black" cx="478" cy="-66.8" rx="97.27" ry="18"/>
<text text-anchor="middle" x="478" y="-62.6" font-family="Times,serif" font-size="14.00">AuthenticationService</text>
</g>
<!-- AuthenticationService&#45;&gt;AuthenticationModule -->
<g id="edge5" class="edge">
<title>AuthenticationService&#45;&gt;AuthenticationModule</title>
<path fill="none" stroke="black" d="M417,-80.9C417,-80.9 417,-103.52 417,-103.52"/>
<polygon fill="black" stroke="black" points="413.5,-103.52 417,-113.52 420.5,-103.52 413.5,-103.52"/>
</g>
<!-- JwtAuthStrategy -->
<g id="node8" class="node">
<title>JwtAuthStrategy</title>
<ellipse fill="#fdb462" stroke="black" cx="287" cy="-66.8" rx="75.89" ry="18"/>
<text text-anchor="middle" x="287" y="-62.6" font-family="Times,serif" font-size="14.00">JwtAuthStrategy</text>
</g>
<!-- JwtAuthStrategy&#45;&gt;AuthenticationModule -->
<g id="edge6" class="edge">
<title>JwtAuthStrategy&#45;&gt;AuthenticationModule</title>
<path fill="none" stroke="black" d="M336.79,-80.58C336.79,-80.58 336.79,-103.35 336.79,-103.35"/>
<polygon fill="black" stroke="black" points="333.29,-103.35 336.79,-113.35 340.29,-103.35 333.29,-103.35"/>
</g>
<!-- LocalAuthStrategy -->
<g id="node9" class="node">
<title>LocalAuthStrategy</title>
<ellipse fill="#fdb462" stroke="black" cx="109" cy="-66.8" rx="84.53" ry="18"/>
<text text-anchor="middle" x="109" y="-62.6" font-family="Times,serif" font-size="14.00">LocalAuthStrategy</text>
</g>
<!-- LocalAuthStrategy&#45;&gt;AuthenticationModule -->
<g id="edge7" class="edge">
<title>LocalAuthStrategy&#45;&gt;AuthenticationModule</title>
<path fill="none" stroke="black" d="M109,-84.91C109,-104.14 109,-131.8 109,-131.8 109,-131.8 300.63,-131.8 300.63,-131.8"/>
<polygon fill="black" stroke="black" points="300.63,-135.3 310.63,-131.8 300.63,-128.3 300.63,-135.3"/>
</g>
<!-- EnvironmentService -->
<g id="node12" class="node">
<title>EnvironmentService</title>
<ellipse fill="#fdb462" stroke="black" cx="941" cy="-272.8" rx="90.33" ry="18"/>
<text text-anchor="middle" x="941" y="-268.6" font-family="Times,serif" font-size="14.00">EnvironmentService</text>
</g>
<!-- EnvironmentService&#45;&gt;CoreModule -->
<g id="edge11" class="edge">
<title>EnvironmentService&#45;&gt;CoreModule</title>
<path fill="none" stroke="black" d="M941,-254.61C941,-246.52 941,-238.8 941,-238.8 941,-238.8 671.78,-238.8 671.78,-238.8 671.78,-238.8 671.78,-224.86 671.78,-224.86"/>
<polygon fill="black" stroke="black" points="675.28,-224.86 671.78,-214.86 668.28,-224.86 675.28,-224.86"/>
</g>
<!-- ProductsService -->
<g id="node14" class="node">
<title>ProductsService</title>
<ellipse fill="#fdb462" stroke="black" cx="925" cy="-348.8" rx="73.59" ry="18"/>
<text text-anchor="middle" x="925" y="-344.6" font-family="Times,serif" font-size="14.00">ProductsService</text>
</g>
<!-- ProductsService&#45;&gt;ProductsModule -->
<g id="edge14" class="edge">
<title>ProductsService&#45;&gt;ProductsModule</title>
<path fill="none" stroke="black" d="M850.98,-348.8C816.43,-348.8 782.79,-348.8 782.79,-348.8 782.79,-348.8 782.79,-300.81 782.79,-300.81"/>
<polygon fill="black" stroke="black" points="786.29,-300.81 782.79,-290.81 779.29,-300.81 786.29,-300.81"/>
</g>
<!-- SessionService -->
<g id="node17" class="node">
<title>SessionService</title>
<ellipse fill="#fdb462" stroke="black" cx="1604" cy="-272.8" rx="69.51" ry="18"/>
<text text-anchor="middle" x="1604" y="-268.6" font-family="Times,serif" font-size="14.00">SessionService</text>
</g>
<!-- SessionService&#45;&gt;UsersModule -->
<g id="edge17" class="edge">
<title>SessionService&#45;&gt;UsersModule</title>
<path fill="none" stroke="black" d="M1604,-254.63C1604,-233.3 1604,-200.8 1604,-200.8 1604,-200.8 821,-200.8 821,-200.8"/>
<polygon fill="black" stroke="black" points="821,-197.3 811,-200.8 821,-204.3 821,-197.3"/>
</g>
<!-- UsersService -->
<g id="node18" class="node">
<title>UsersService</title>
<ellipse fill="#fdb462" stroke="black" cx="1455" cy="-272.8" rx="61.97" ry="18"/>
<text text-anchor="middle" x="1455" y="-268.6" font-family="Times,serif" font-size="14.00">UsersService</text>
</g>
<!-- UsersService&#45;&gt;UsersModule -->
<g id="edge18" class="edge">
<title>UsersService&#45;&gt;UsersModule</title>
<path fill="none" stroke="black" d="M1455,-254.69C1455,-235.46 1455,-207.8 1455,-207.8 1455,-207.8 820.81,-207.8 820.81,-207.8"/>
<polygon fill="black" stroke="black" points="820.81,-204.3 810.81,-207.8 820.81,-211.3 820.81,-204.3"/>
</g>
</g>
</svg>
