<?xml version="1.0" encoding="UTF-8" standalone="no"?>
<!DOCTYPE svg PUBLIC "-//W3C//DTD SVG 1.1//EN"
 "http://www.w3.org/Graphics/SVG/1.1/DTD/svg11.dtd">
<!-- Generated by graphviz version 5.0.0 (20220707.1540)
 -->
<!-- Title: dependencies Pages: 1 -->
<svg width="607pt" height="247pt"
 viewBox="0.00 0.00 607.00 246.80" xmlns="http://www.w3.org/2000/svg" xmlns:xlink="http://www.w3.org/1999/xlink">
<g id="graph0" class="graph" transform="scale(1 1) rotate(0) translate(4 242.8)">
<title>dependencies</title>
<polygon fill="white" stroke="transparent" points="-4,4 -4,-242.8 603,-242.8 603,4 -4,4"/>
<text text-anchor="middle" x="299.5" y="-8.2" font-family="sans-serif" font-size="14.00">dependencies</text>
<g id="clust1" class="cluster">
<title>cluster_AuthenticationModule</title>
<polygon fill="none" stroke="black" stroke-dasharray="1,5" points="8,-32.8 8,-230.8 591,-230.8 591,-32.8 8,-32.8"/>
</g>
<g id="clust6" class="cluster">
<title>cluster_AuthenticationModule_providers</title>
<polygon fill="none" stroke="black" points="16,-40.8 16,-92.8 583,-92.8 583,-40.8 16,-40.8"/>
</g>
<g id="clust4" class="cluster">
<title>cluster_AuthenticationModule_exports</title>
<polygon fill="none" stroke="black" points="207,-170.8 207,-222.8 367,-222.8 367,-170.8 207,-170.8"/>
</g>
<!-- AuthenticationService  -->
<g id="node1" class="node">
<title>AuthenticationService </title>
<polygon fill="#fb8072" stroke="black" points="359.18,-214.8 214.82,-214.8 214.82,-178.8 359.18,-178.8 359.18,-214.8"/>
<text text-anchor="middle" x="287" y="-192.6" font-family="Times,serif" font-size="14.00">AuthenticationService </text>
</g>
<!-- AuthenticationModule -->
<g id="node2" class="node">
<title>AuthenticationModule</title>
<polygon fill="#8dd3c7" stroke="black" points="358.25,-149.8 355.25,-153.8 334.25,-153.8 331.25,-149.8 215.75,-149.8 215.75,-113.8 358.25,-113.8 358.25,-149.8"/>
<text text-anchor="middle" x="287" y="-127.6" font-family="Times,serif" font-size="14.00">AuthenticationModule</text>
</g>
<!-- AuthenticationModule&#45;&gt;AuthenticationService  -->
<g id="edge1" class="edge">
<title>AuthenticationModule&#45;&gt;AuthenticationService </title>
<path fill="none" stroke="black" stroke-dasharray="5,2" d="M287,-149.91C287,-149.91 287,-168.79 287,-168.79"/>
<polygon fill="black" stroke="black" points="283.5,-168.79 287,-178.79 290.5,-168.79 283.5,-168.79"/>
</g>
<!-- AuthenticationService -->
<g id="node3" class="node">
<title>AuthenticationService</title>
<ellipse fill="#fdb462" stroke="black" cx="478" cy="-66.8" rx="97.27" ry="18"/>
<text text-anchor="middle" x="478" y="-62.6" font-family="Times,serif" font-size="14.00">AuthenticationService</text>
</g>
<!-- AuthenticationService&#45;&gt;AuthenticationModule -->
<g id="edge2" class="edge">
<title>AuthenticationService&#45;&gt;AuthenticationModule</title>
<path fill="none" stroke="black" d="M478,-84.91C478,-104.14 478,-131.8 478,-131.8 478,-131.8 368.39,-131.8 368.39,-131.8"/>
<polygon fill="black" stroke="black" points="368.39,-128.3 358.39,-131.8 368.39,-135.3 368.39,-128.3"/>
</g>
<!-- JwtAuthStrategy -->
<g id="node4" class="node">
<title>JwtAuthStrategy</title>
<ellipse fill="#fdb462" stroke="black" cx="287" cy="-66.8" rx="75.89" ry="18"/>
<text text-anchor="middle" x="287" y="-62.6" font-family="Times,serif" font-size="14.00">JwtAuthStrategy</text>
</g>
<!-- JwtAuthStrategy&#45;&gt;AuthenticationModule -->
<g id="edge3" class="edge">
<title>JwtAuthStrategy&#45;&gt;AuthenticationModule</title>
<path fill="none" stroke="black" d="M287,-84.91C287,-84.91 287,-103.79 287,-103.79"/>
<polygon fill="black" stroke="black" points="283.5,-103.79 287,-113.79 290.5,-103.79 283.5,-103.79"/>
</g>
<!-- LocalAuthStrategy -->
<g id="node5" class="node">
<title>LocalAuthStrategy</title>
<ellipse fill="#fdb462" stroke="black" cx="109" cy="-66.8" rx="84.53" ry="18"/>
<text text-anchor="middle" x="109" y="-62.6" font-family="Times,serif" font-size="14.00">LocalAuthStrategy</text>
</g>
<!-- LocalAuthStrategy&#45;&gt;AuthenticationModule -->
<g id="edge4" class="edge">
<title>LocalAuthStrategy&#45;&gt;AuthenticationModule</title>
<path fill="none" stroke="black" d="M109,-84.91C109,-104.14 109,-131.8 109,-131.8 109,-131.8 205.63,-131.8 205.63,-131.8"/>
<polygon fill="black" stroke="black" points="205.63,-135.3 215.63,-131.8 205.63,-128.3 205.63,-135.3"/>
</g>
</g>
</svg>
