<?xml version="1.0" encoding="UTF-8" standalone="no"?>
<!DOCTYPE svg PUBLIC "-//W3C//DTD SVG 1.1//EN"
 "http://www.w3.org/Graphics/SVG/1.1/DTD/svg11.dtd">
<!-- Generated by graphviz version 5.0.0 (20220707.1540)
 -->
<!-- Title: dependencies Pages: 1 -->
<svg width="402pt" height="247pt"
 viewBox="0.00 0.00 402.00 246.80" xmlns="http://www.w3.org/2000/svg" xmlns:xlink="http://www.w3.org/1999/xlink">
<g id="graph0" class="graph" transform="scale(1 1) rotate(0) translate(4 242.8)">
<title>dependencies</title>
<polygon fill="white" stroke="transparent" points="-4,4 -4,-242.8 398,-242.8 398,4 -4,4"/>
<text text-anchor="middle" x="197" y="-8.2" font-family="sans-serif" font-size="14.00">dependencies</text>
<g id="clust1" class="cluster">
<title>cluster_CoreModule</title>
<polygon fill="none" stroke="black" stroke-dasharray="1,5" points="8,-32.8 8,-230.8 386,-230.8 386,-32.8 8,-32.8"/>
</g>
<g id="clust3" class="cluster">
<title>cluster_CoreModule_imports</title>
<polygon fill="none" stroke="black" points="220,-40.8 220,-92.8 378,-92.8 378,-40.8 220,-40.8"/>
</g>
<g id="clust4" class="cluster">
<title>cluster_CoreModule_exports</title>
<polygon fill="none" stroke="black" points="34,-170.8 34,-222.8 348,-222.8 348,-170.8 34,-170.8"/>
</g>
<g id="clust6" class="cluster">
<title>cluster_CoreModule_providers</title>
<polygon fill="none" stroke="black" points="16,-40.8 16,-92.8 212,-92.8 212,-40.8 16,-40.8"/>
</g>
<!-- AuthenticationModule -->
<g id="node1" class="node">
<title>AuthenticationModule</title>
<polygon fill="#8dd3c7" stroke="black" points="370.25,-84.8 367.25,-88.8 346.25,-88.8 343.25,-84.8 227.75,-84.8 227.75,-48.8 370.25,-48.8 370.25,-84.8"/>
<text text-anchor="middle" x="299" y="-62.6" font-family="Times,serif" font-size="14.00">AuthenticationModule</text>
</g>
<!-- CoreModule -->
<g id="node2" class="node">
<title>CoreModule</title>
<polygon fill="#8dd3c7" stroke="black" points="169.27,-149.8 166.27,-153.8 145.27,-153.8 142.27,-149.8 82.73,-149.8 82.73,-113.8 169.27,-113.8 169.27,-149.8"/>
<text text-anchor="middle" x="126" y="-127.6" font-family="Times,serif" font-size="14.00">CoreModule</text>
</g>
<!-- AuthenticationModule&#45;&gt;CoreModule -->
<g id="edge1" class="edge">
<title>AuthenticationModule&#45;&gt;CoreModule</title>
<path fill="none" stroke="black" d="M283.88,-84.82C283.88,-102.17 283.88,-125.8 283.88,-125.8 283.88,-125.8 179.56,-125.8 179.56,-125.8"/>
<polygon fill="black" stroke="black" points="179.56,-122.3 169.56,-125.8 179.56,-129.3 179.56,-122.3"/>
</g>
<!-- AuthenticationModule  -->
<g id="node3" class="node">
<title>AuthenticationModule </title>
<polygon fill="#fb8072" stroke="black" points="340.25,-214.8 193.75,-214.8 193.75,-178.8 340.25,-178.8 340.25,-214.8"/>
<text text-anchor="middle" x="267" y="-192.6" font-family="Times,serif" font-size="14.00">AuthenticationModule </text>
</g>
<!-- CoreModule&#45;&gt;AuthenticationModule  -->
<g id="edge2" class="edge">
<title>CoreModule&#45;&gt;AuthenticationModule </title>
<path fill="none" stroke="black" stroke-dasharray="5,2" d="M169.39,-137.8C185.14,-137.8 199.14,-137.8 199.14,-137.8 199.14,-137.8 199.14,-168.78 199.14,-168.78"/>
<polygon fill="black" stroke="black" points="195.64,-168.78 199.14,-178.78 202.64,-168.78 195.64,-168.78"/>
</g>
<!-- EnvironmentService  -->
<g id="node4" class="node">
<title>EnvironmentService </title>
<polygon fill="#fb8072" stroke="black" points="176.08,-214.8 41.92,-214.8 41.92,-178.8 176.08,-178.8 176.08,-214.8"/>
<text text-anchor="middle" x="109" y="-192.6" font-family="Times,serif" font-size="14.00">EnvironmentService </text>
</g>
<!-- CoreModule&#45;&gt;EnvironmentService  -->
<g id="edge3" class="edge">
<title>CoreModule&#45;&gt;EnvironmentService </title>
<path fill="none" stroke="black" stroke-dasharray="5,2" d="M126,-149.91C126,-149.91 126,-168.79 126,-168.79"/>
<polygon fill="black" stroke="black" points="122.5,-168.79 126,-178.79 129.5,-168.79 122.5,-168.79"/>
</g>
<!-- EnvironmentService -->
<g id="node5" class="node">
<title>EnvironmentService</title>
<ellipse fill="#fdb462" stroke="black" cx="114" cy="-66.8" rx="90.33" ry="18"/>
<text text-anchor="middle" x="114" y="-62.6" font-family="Times,serif" font-size="14.00">EnvironmentService</text>
</g>
<!-- EnvironmentService&#45;&gt;CoreModule -->
<g id="edge4" class="edge">
<title>EnvironmentService&#45;&gt;CoreModule</title>
<path fill="none" stroke="black" d="M126,-84.91C126,-84.91 126,-103.79 126,-103.79"/>
<polygon fill="black" stroke="black" points="122.5,-103.79 126,-113.79 129.5,-103.79 122.5,-103.79"/>
</g>
</g>
</svg>
