<?xml version="1.0" encoding="UTF-8" standalone="no"?>
<!DOCTYPE svg PUBLIC "-//W3C//DTD SVG 1.1//EN"
 "http://www.w3.org/Graphics/SVG/1.1/DTD/svg11.dtd">
<!-- Generated by graphviz version 5.0.0 (20220707.1540)
 -->
<!-- Title: dependencies Pages: 1 -->
<svg width="337pt" height="247pt"
 viewBox="0.00 0.00 337.00 246.80" xmlns="http://www.w3.org/2000/svg" xmlns:xlink="http://www.w3.org/1999/xlink">
<g id="graph0" class="graph" transform="scale(1 1) rotate(0) translate(4 242.8)">
<title>dependencies</title>
<polygon fill="white" stroke="transparent" points="-4,4 -4,-242.8 333,-242.8 333,4 -4,4"/>
<text text-anchor="middle" x="164.5" y="-8.2" font-family="sans-serif" font-size="14.00">dependencies</text>
<g id="clust1" class="cluster">
<title>cluster_UsersModule</title>
<polygon fill="none" stroke="black" stroke-dasharray="1,5" points="8,-32.8 8,-230.8 321,-230.8 321,-32.8 8,-32.8"/>
</g>
<g id="clust6" class="cluster">
<title>cluster_UsersModule_providers</title>
<polygon fill="none" stroke="black" points="16,-40.8 16,-92.8 313,-92.8 313,-40.8 16,-40.8"/>
</g>
<g id="clust4" class="cluster">
<title>cluster_UsersModule_exports</title>
<polygon fill="none" stroke="black" points="36,-170.8 36,-222.8 268,-222.8 268,-170.8 36,-170.8"/>
</g>
<!-- SessionService  -->
<g id="node1" class="node">
<title>SessionService </title>
<polygon fill="#fb8072" stroke="black" points="260.27,-214.8 155.73,-214.8 155.73,-178.8 260.27,-178.8 260.27,-214.8"/>
<text text-anchor="middle" x="208" y="-192.6" font-family="Times,serif" font-size="14.00">SessionService </text>
</g>
<!-- UsersService  -->
<g id="node2" class="node">
<title>UsersService </title>
<polygon fill="#fb8072" stroke="black" points="137.86,-214.8 44.14,-214.8 44.14,-178.8 137.86,-178.8 137.86,-214.8"/>
<text text-anchor="middle" x="91" y="-192.6" font-family="Times,serif" font-size="14.00">UsersService </text>
</g>
<!-- UsersModule -->
<g id="node3" class="node">
<title>UsersModule</title>
<polygon fill="#8dd3c7" stroke="black" points="156.94,-149.8 153.94,-153.8 132.94,-153.8 129.94,-149.8 65.06,-149.8 65.06,-113.8 156.94,-113.8 156.94,-149.8"/>
<text text-anchor="middle" x="111" y="-127.6" font-family="Times,serif" font-size="14.00">UsersModule</text>
</g>
<!-- UsersModule&#45;&gt;SessionService  -->
<g id="edge1" class="edge">
<title>UsersModule&#45;&gt;SessionService </title>
<path fill="none" stroke="black" stroke-dasharray="5,2" d="M156.83,-131.8C159.49,-131.8 161.11,-131.8 161.11,-131.8 161.11,-131.8 161.11,-168.69 161.11,-168.69"/>
<polygon fill="black" stroke="black" points="157.61,-168.69 161.11,-178.69 164.61,-168.69 157.61,-168.69"/>
</g>
<!-- UsersModule&#45;&gt;UsersService  -->
<g id="edge2" class="edge">
<title>UsersModule&#45;&gt;UsersService </title>
<path fill="none" stroke="black" stroke-dasharray="5,2" d="M101.48,-149.91C101.48,-149.91 101.48,-168.79 101.48,-168.79"/>
<polygon fill="black" stroke="black" points="97.98,-168.79 101.48,-178.79 104.98,-168.79 97.98,-168.79"/>
</g>
<!-- SessionService -->
<g id="node4" class="node">
<title>SessionService</title>
<ellipse fill="#fdb462" stroke="black" cx="235" cy="-66.8" rx="69.51" ry="18"/>
<text text-anchor="middle" x="235" y="-62.6" font-family="Times,serif" font-size="14.00">SessionService</text>
</g>
<!-- SessionService&#45;&gt;UsersModule -->
<g id="edge3" class="edge">
<title>SessionService&#45;&gt;UsersModule</title>
<path fill="none" stroke="black" d="M165.27,-66.8C157.52,-66.8 152.35,-66.8 152.35,-66.8 152.35,-66.8 152.35,-103.69 152.35,-103.69"/>
<polygon fill="black" stroke="black" points="148.85,-103.69 152.35,-113.69 155.85,-103.69 148.85,-103.69"/>
</g>
<!-- UsersService -->
<g id="node5" class="node">
<title>UsersService</title>
<ellipse fill="#fdb462" stroke="black" cx="86" cy="-66.8" rx="61.97" ry="18"/>
<text text-anchor="middle" x="86" y="-62.6" font-family="Times,serif" font-size="14.00">UsersService</text>
</g>
<!-- UsersService&#45;&gt;UsersModule -->
<g id="edge4" class="edge">
<title>UsersService&#45;&gt;UsersModule</title>
<path fill="none" stroke="black" d="M106.63,-83.88C106.63,-83.88 106.63,-103.7 106.63,-103.7"/>
<polygon fill="black" stroke="black" points="103.13,-103.7 106.63,-113.7 110.13,-103.7 103.13,-103.7"/>
</g>
</g>
</svg>
